<?xml version="1.0" encoding="utf-8"?>
<!-- Generator: Adobe Illustrator 24.1.1, SVG Export Plug-In . SVG Version: 6.00 Build 0)  -->
<svg version="1.1" id="Layer_1" xmlns="http://www.w3.org/2000/svg" xmlns:xlink="http://www.w3.org/1999/xlink" x="0px" y="0px"
	 viewBox="0 0 512 512" style="enable-background:new 0 0 512 512;" xml:space="preserve">
<g>
	<rect x="0" y="0" width="512" height="34.1"/>
	<rect x="0" y="477.9" width="512" height="34.1"/>
	<path d="M76.2,229.8c42,0,76.1-34.1,76.1-76.1c0-42-34.1-76.1-76.1-76.1C34.1,77.6,0,111.7,0,153.7
		C0.1,195.7,34.2,229.8,76.2,229.8z M76.2,111.7c23.2,0,42,18.8,42,42s-18.8,42-42,42s-42-18.8-42-42
		C34.2,130.5,53,111.7,76.2,111.7z"/>
	<path d="M275.5,229.8c35,0,63.4-28.4,63.4-63.4S310.6,103,275.5,103s-63.4,28.4-63.4,63.4C212.1,201.4,240.5,229.8,275.5,229.8
		L275.5,229.8z M275.5,137.1c16.2,0,29.3,13.1,29.3,29.3s-13.1,29.3-29.3,29.3c-16.2,0-29.3-13.1-29.3-29.3
		C246.2,150.2,259.4,137.1,275.5,137.1L275.5,137.1z"/>
	<circle cx="447.5" cy="181.2" r="31.6"/>
	<path d="M76.2,438.8c42,0,76.1-34.1,76.1-76.1s-34.1-76.1-76.1-76.1C34.1,286.5,0,320.6,0,362.6C0,404.7,34.1,438.7,76.2,438.8
		L76.2,438.8z M76.2,320.6c23.2,0,42,18.8,42,42c0,23.2-18.8,42-42,42c-23.2,0-42-18.8-42-42C34.2,339.5,53,320.7,76.2,320.6
		L76.2,320.6z"/>
	<path d="M275.5,413.4c35,0,63.4-28.4,63.4-63.4s-28.4-63.4-63.4-63.4s-63.4,28.4-63.4,63.4C212.1,384.9,240.5,413.3,275.5,413.4
		L275.5,413.4z M275.5,320.6c16.2,0,29.3,13.1,29.3,29.3s-13.1,29.3-29.3,29.3c-16.2,0-29.3-13.1-29.3-29.3
		C246.2,333.8,259.4,320.7,275.5,320.6L275.5,320.6z"/>
	<circle cx="447.5" cy="335.2" r="31.6"/>
</g>
</svg>
